
<svg width="618px" height="566px" viewBox="0 0 618 566" version="1.1" xmlns="http://www.w3.org/2000/svg" xmlns:xlink="http://www.w3.org/1999/xlink">
    <g id="Page-1" stroke="none" stroke-width="1" fill="none" fill-rule="evenodd">
        <g id="Group-5">
            <g id="Group-4" fill="#D0D0D0">
                <path d="M376.071377,362.485753 L255.275555,362.485753 L212.051491,566 L93.9571734,566 L214.752995,0 L462.519505,0 C519.637304,0 562.024764,14.5914416 589.683158,43.7747626 C617.341551,72.9580835 624.738453,118.140354 611.874084,179.322931 C597.46599,246.137376 570.322578,293.367569 530.443034,321.014925 C490.56349,348.662282 439.106786,362.485753 376.071377,362.485753 Z" id="P"></path>
                <polygon id="[" points="90.3744712 80.6682243 203.794433 80.6682243 193.853241 127.730427 126.436047 127.730427 55.9439599 459.202191 123.361153 459.202191 113.419961 506.490654 0 506.490654"></polygon>
            </g>
            <polygon id="Rectangle-Copy-2" fill="#8C8C8C" points="315.663493 95 536 95 463.133096 184.334371 495.879015 274 275 274"></polygon>
        </g>
    </g>
</svg>
