
<svg width="3336px" height="822px" viewBox="0 0 3336 822" version="1.1" xmlns="http://www.w3.org/2000/svg" xmlns:xlink="http://www.w3.org/1999/xlink">
    <defs>
        <path d="M154.541555,735 L0,735 L130.820399,117 L286.250534,117 L311.185729,5.68434189e-14 L670.512368,5.68434189e-14 C753.348207,5.68434189e-14 814.821178,21.1911042 854.933127,63.5739484 C895.045076,105.956793 905.772529,171.574861 887.115809,260.430122 C866.220282,357.464529 826.855193,426.056787 769.019359,466.208955 C711.183526,506.361123 636.557764,526.436906 545.139833,526.436906 L369.954104,526.436906 L307.267837,822 L136,822 L154.541555,735 Z M169.16811,666.369819 L271.693962,185.301807 L183.020868,185.301807 L80.9809569,666.369819 L169.16811,666.369819 Z M457.532505,137.968198 L398.55974,397.929329 L718.892436,397.929329 L671.402236,267.708221 L777.078422,137.968198 L457.532505,137.968198 Z" id="path-1"></path>
    </defs>
    <g id="Page-1" stroke="none" stroke-width="1" fill="none" fill-rule="evenodd">
        <g id="Group-5">
            <g id="Group-4">
                <g id="Rectangle-Copy-2">
                    <mask id="mask-2" fill="white">
                        <use xlink:href="#path-1"></use>
                    </mask>
                    <use id="Combined-Shape" fill="#FFFFFF" xlink:href="#path-1"></use>
                </g>
            </g>
        </g>
        <text id="perservere" font-family="Rockwell-Regular, Rockwell" font-size="400.32" font-weight="normal" letter-spacing="11.2704007" fill="#FFFFFF">
            <tspan x="1027" y="509">perservere</tspan>
        </text>
    </g>
</svg>
